<?xml version="1.0" encoding="iso-8859-1"?>
<!-- Generator: Adobe Illustrator 19.0.0, SVG Export Plug-In . SVG Version: 6.00 Build 0)  -->
<svg version="1.1" id="fishsvg" xmlns="http://www.w3.org/2000/svg" xmlns:xlink="http://www.w3.org/1999/xlink" x="0px" y="0px"
	 viewBox="0 0 471.893 471.893" style="enable-background:new 0 0 471.893 471.893;" xml:space="preserve">
<g>
	<path d="M97.972,363.323l-44.563,44.563c-2.929,2.93-2.929,7.678,0,10.607c4.25,4.249,6.591,9.899,6.591,15.909
		s-2.341,11.66-6.591,15.909c-4.249,4.25-9.899,6.591-15.909,6.591s-11.66-2.341-15.91-6.591c-4.249-4.249-6.59-9.899-6.59-15.909
		s2.341-11.66,6.591-15.909c2.929-2.93,2.929-7.678,0-10.607c-2.93-2.928-7.678-2.928-10.607,0C3.901,414.968,0,424.385,0,434.402
		s3.901,19.434,10.983,26.517c7.312,7.311,16.913,10.966,26.517,10.966c9.602-0.001,19.206-3.656,26.516-10.966
		C71.099,453.836,75,444.419,75,434.402c0-7.468-2.169-14.603-6.208-20.686l39.787-39.786c2.929-2.93,2.929-7.678,0-10.607
		C105.649,360.395,100.901,360.395,97.972,363.323z"/>
	<path d="M470.802,142.738c-15.097-24.838-40.155-41.975-68.751-47.017c-4.563-0.805-9.179-1.284-13.808-1.454l79.561-79.561
		c2.929-2.93,2.929-7.678,0-10.607c-2.93-2.928-7.678-2.928-10.607,0l-79.558,79.558c-0.171-4.615-0.648-9.224-1.457-13.804
		c-5.042-28.596-22.18-53.654-47.018-68.752c-3.218-1.956-7.393-1.223-9.749,1.72c-18.175,22.685-25.707,52.094-20.665,80.686
		c0.794,4.508,1.896,8.958,3.295,13.316c-50.855,1.34-98.459,21.764-134.55,57.854c-50.903,50.904-70.145,125.552-50.215,194.812
		c0.714,2.48,2.653,4.42,5.134,5.134c17.831,5.13,36.305,7.731,54.908,7.731c52.851,0,102.536-20.579,139.904-57.946
		c19.599-19.6,34.581-42.538,44.53-68.179c8.265-21.302,12.734-43.578,13.327-66.369c4.357,1.397,8.808,2.5,13.313,3.294
		c5.829,1.028,11.762,1.549,17.635,1.549c22.78,0,45.174-7.891,63.051-22.216C472.023,150.13,472.759,145.958,470.802,142.738z
		 M406.032,159.702c-5.002,0-10.059-0.444-15.03-1.32c-7.008-1.235-13.856-3.345-20.354-6.27c-2.354-1.06-5.091-0.833-7.241,0.601
		c-2.149,1.434-3.408,3.873-3.334,6.456c1.476,50.873-17.508,98.686-53.454,134.631c-34.534,34.535-80.453,53.554-129.297,53.554
		c-15.804,0-31.505-2.03-46.735-6.038c-16.555-62.87,1.454-129.972,47.516-176.032c34.52-34.521,80.436-53.531,129.29-53.531
		c1.772,0,3.569,0.025,5.341,0.077c2.568,0.063,5.022-1.184,6.456-3.334c1.435-2.149,1.661-4.885,0.601-7.241
		c-2.924-6.497-5.033-13.345-6.269-20.353c-3.896-22.094,1.029-44.764,13.544-63.206c18.067,13.048,30.448,32.666,34.345,54.763
		c1.713,9.708,1.743,19.563,0.091,29.293c-0.01,0.056-0.01,0.112-0.018,0.168c-0.029,0.196-0.051,0.393-0.064,0.591
		c-0.006,0.095-0.011,0.189-0.013,0.283c-0.005,0.193-0.002,0.385,0.007,0.577c0.004,0.083,0.005,0.167,0.012,0.25
		c0.045,0.548,0.149,1.092,0.314,1.622c0.017,0.054,0.038,0.107,0.056,0.161c0.07,0.209,0.149,0.416,0.239,0.619
		c0.03,0.068,0.062,0.135,0.094,0.201c0.089,0.187,0.186,0.371,0.292,0.552c0.039,0.067,0.077,0.134,0.118,0.199
		c0.114,0.182,0.237,0.359,0.368,0.532c0.041,0.054,0.078,0.11,0.12,0.164c0.176,0.221,0.363,0.437,0.567,0.641
		c0.204,0.204,0.419,0.39,0.64,0.566c0.054,0.043,0.111,0.08,0.166,0.122c0.174,0.131,0.351,0.255,0.533,0.368
		c0.064,0.04,0.128,0.077,0.193,0.114c0.185,0.108,0.373,0.207,0.564,0.298c0.062,0.029,0.123,0.059,0.186,0.086
		c0.214,0.094,0.431,0.177,0.651,0.251c0.043,0.014,0.084,0.031,0.127,0.044c0.537,0.168,1.088,0.274,1.644,0.318
		c0.07,0.006,0.141,0.006,0.212,0.01c0.13,0.007,0.259,0.019,0.388,0.019c0.075,0,0.15-0.009,0.225-0.011
		c0.089-0.002,0.177-0.007,0.266-0.013c0.199-0.013,0.398-0.035,0.596-0.064c0.056-0.008,0.112-0.009,0.168-0.018
		c9.68-1.644,19.631-1.613,29.295,0.092c22.097,3.896,41.714,16.276,54.762,34.344C440.012,154.463,423.147,159.702,406.032,159.702
		z"/>
	<path d="M196.949,263.354c-3.099,0-6.011,1.206-8.202,3.396c-4.522,4.522-4.522,11.882,0,16.404
		c2.191,2.19,5.104,3.396,8.202,3.396s6.011-1.206,8.202-3.396c4.522-4.522,4.522-11.882,0-16.404
		C202.96,264.56,200.048,263.354,196.949,263.354z"/>
	<path d="M216.521,208.419c-2.929-2.927-7.677-2.929-10.607,0c-2.929,2.93-2.929,7.678,0,10.607l46.96,46.961
		c1.465,1.464,3.384,2.196,5.304,2.196c1.919,0,3.839-0.732,5.304-2.196c2.929-2.93,2.929-7.678,0-10.607L216.521,208.419z"/>
	<path d="M287.232,137.708c-2.93-2.927-7.678-2.929-10.607,0c-2.929,2.93-2.929,7.678,0,10.607l46.96,46.961
		c1.465,1.464,3.384,2.196,5.304,2.196c1.919,0,3.839-0.732,5.304-2.196c2.929-2.93,2.929-7.678,0-10.607L287.232,137.708z"/>
	<path d="M251.877,173.063c-2.929-2.927-7.677-2.929-10.607,0c-2.929,2.93-2.929,7.678,0,10.607l46.96,46.961
		c1.465,1.464,3.384,2.196,5.304,2.196c1.919,0,3.839-0.732,5.304-2.196c2.929-2.93,2.929-7.678,0-10.607L251.877,173.063z"/>
</g>
<g>
</g>
<g>
</g>
<g>
</g>
<g>
</g>
<g>
</g>
<g>
</g>
<g>
</g>
<g>
</g>
<g>
</g>
<g>
</g>
<g>
</g>
<g>
</g>
<g>
</g>
<g>
</g>
<g>
</g>
</svg>
