<?xml version="1.0" encoding="iso-8859-1"?>
<!-- Generator: Adobe Illustrator 18.0.0, SVG Export Plug-In . SVG Version: 6.00 Build 0)  -->
<!DOCTYPE svg PUBLIC "-//W3C//DTD SVG 1.1//EN" "http://www.w3.org/Graphics/SVG/1.1/DTD/svg11.dtd">
<svg version="1.1" id="indiansvg" xmlns="http://www.w3.org/2000/svg" xmlns:xlink="http://www.w3.org/1999/xlink" x="0px" y="0px"
	 viewBox="0 0 471.3 471.3" style="enable-background:new 0 0 471.3 471.3;" xml:space="preserve">
<g>
	<path d="M90.119,167.077c4.42-4.418,11.61-4.418,16.029,0c0.976,0.976,2.255,1.464,3.535,1.464s2.56-0.488,3.536-1.465
		c1.953-1.952,1.953-5.118,0-7.071c-8.318-8.316-21.853-8.314-30.169,0c-1.953,1.953-1.953,5.118,0,7.071
		C85,169.03,88.167,169.029,90.119,167.077z"/>
	<path d="M133.318,141.899c2.141-2.141,4.987-3.319,8.014-3.319c3.027,0,5.874,1.179,8.014,3.319
		c0.977,0.977,2.256,1.465,3.536,1.465s2.559-0.488,3.536-1.465c1.953-1.952,1.953-5.118,0-7.07c-8.318-8.318-21.852-8.317-30.17,0
		c-1.953,1.952-1.953,5.118,0,7.07C128.2,143.852,131.365,143.852,133.318,141.899z"/>
	<path d="M135.999,206.505c-1.953,1.953-1.953,5.118,0,7.071s5.119,1.953,7.071,0.001c4.418-4.42,11.609-4.421,16.029,0
		c0.976,0.976,2.255,1.464,3.535,1.464s2.56-0.488,3.536-1.465c1.953-1.953,1.953-5.118,0-7.071
		C157.852,198.19,144.317,198.188,135.999,206.505z"/>
	<path d="M159.074,257.324c1.952,1.951,5.119,1.952,7.071-0.001c2.141-2.141,4.986-3.319,8.014-3.319s5.873,1.179,8.014,3.319
		c0.977,0.977,2.256,1.465,3.536,1.465c1.279,0,2.559-0.488,3.535-1.464c1.953-1.953,1.953-5.119,0-7.071
		c-4.029-4.03-9.387-6.249-15.085-6.249s-11.056,2.219-15.085,6.249C157.121,252.205,157.121,255.371,159.074,257.324z"/>
	<path d="M255.754,245.39c0.976,0.977,2.256,1.465,3.535,1.465s2.56-0.488,3.535-1.465c2.142-2.141,4.987-3.319,8.015-3.319
		s5.873,1.179,8.013,3.319c1.953,1.953,5.118,1.952,7.071,0.001c1.953-1.953,1.953-5.118,0.001-7.071
		c-4.029-4.03-9.387-6.249-15.085-6.249s-11.056,2.219-15.085,6.249C253.801,240.272,253.801,243.438,255.754,245.39z"/>
	<path d="M74.279,222.558c5.262-3.373,12.286-1.838,15.659,3.423c0.955,1.489,2.567,2.302,4.214,2.302
		c0.924,0,1.859-0.256,2.694-0.792c2.324-1.49,3-4.584,1.51-6.908c-6.349-9.901-19.571-12.792-29.474-6.442
		c-2.325,1.49-3.001,4.583-1.51,6.908C68.862,223.372,71.954,224.049,74.279,222.558z"/>
	<path d="M417.204,306.334c-5.698,0-11.056,2.219-15.085,6.249c-1.952,1.953-1.952,5.118,0.001,7.071
		c1.953,1.951,5.118,1.952,7.071-0.001c2.14-2.141,4.985-3.319,8.013-3.319s5.873,1.179,8.015,3.319
		c0.976,0.977,2.256,1.465,3.535,1.465s2.56-0.488,3.535-1.465c1.953-1.952,1.953-5.118,0-7.07
		C428.259,308.553,422.902,306.334,417.204,306.334z"/>
	<path d="M329.087,170.057c1.951,1.953,5.119,1.953,7.07,0c2.142-2.141,4.987-3.319,8.015-3.319s5.873,1.179,8.015,3.319
		c0.976,0.977,2.256,1.465,3.535,1.465s2.56-0.488,3.535-1.465c1.953-1.952,1.953-5.118,0-7.07c-8.316-8.318-21.854-8.318-30.17,0
		C327.134,164.939,327.134,168.105,329.087,170.057z"/>
	<path d="M308.836,146.243c2.14-2.141,4.985-3.319,8.013-3.319s5.873,1.179,8.015,3.319c0.976,0.977,2.256,1.465,3.535,1.465
		s2.56-0.488,3.535-1.465c1.953-1.952,1.953-5.118,0-7.07c-4.029-4.03-9.387-6.249-15.085-6.249s-11.056,2.219-15.085,6.249
		c-1.952,1.953-1.952,5.118,0.001,7.071C303.718,148.196,306.883,148.197,308.836,146.243z"/>
	<path d="M352.012,209.145c-1.463,2.343-0.749,5.427,1.594,6.889c0.823,0.515,1.738,0.76,2.643,0.76
		c1.668,0,3.298-0.835,4.246-2.354c3.31-5.301,10.314-6.924,15.615-3.614c2.345,1.463,5.428,0.747,6.89-1.595
		c1.462-2.343,0.748-5.428-1.595-6.89C371.424,196.115,358.241,199.165,352.012,209.145z"/>
	<path d="M206.408,163.948c2.141-2.141,4.986-3.319,8.014-3.319s5.873,1.179,8.014,3.319c0.977,0.977,2.256,1.465,3.536,1.465
		c1.279,0,2.559-0.488,3.535-1.464c1.953-1.953,1.953-5.119,0-7.071c-4.029-4.03-9.387-6.249-15.085-6.249
		s-11.056,2.219-15.085,6.249c-1.953,1.952-1.953,5.118,0,7.071C201.289,165.9,204.456,165.901,206.408,163.948z"/>
	<path d="M226.708,180.536c0.977,0.977,2.256,1.465,3.536,1.465s2.559-0.488,3.536-1.465c2.141-2.141,4.987-3.319,8.014-3.319
		s5.873,1.179,8.013,3.319c1.953,1.953,5.118,1.952,7.071,0.001c1.953-1.953,1.953-5.118,0.001-7.071
		c-4.029-4.03-9.387-6.249-15.085-6.249s-11.056,2.219-15.085,6.249C224.755,175.418,224.755,178.584,226.708,180.536z"/>
	<path d="M452.71,256.753c12.325-11.407,18.59-23.693,18.59-36.544c0-12.331-5.749-24.141-17.092-35.143
		c0.717-3.154,1.092-6.279,1.092-9.357c0-24.657-23.026-42.672-68.439-53.544c-37.039-8.866-90.104-13.362-157.724-13.362
		c-64.337,0-118.216,5.585-155.813,16.151C29.43,137.29,7.174,156.209,7.174,181.187c0,9.822,3.674,19.994,10.531,29.996
		C5.96,222.358,0,234.361,0,246.898c0,15.324,9.272,30.283,26.8,43.329c10.079,20.359,37.566,38.717,77.654,51.798
		c40.461,13.202,91.916,20.474,144.886,20.474c65.092,0,116.455-5.224,152.663-15.524c41.782-11.889,62.968-30.593,62.968-55.596
		c0-11.12-4.184-22.522-12.433-33.927C452.6,257.221,452.651,256.985,452.71,256.753z M461.3,220.208
		c0,10.285-5.521,20.433-16.412,30.161c-34.286,30.641-113.021,50.438-200.588,50.438c-58.698,0-113.809-8.786-155.18-24.739
		c-37.429-14.433-59.634-33.595-61.653-52.973c11.033,11.542,26.25,22.552,44.921,32.169
		c43.486,22.396,99.153,34.731,156.749,34.731c57.337,0,113.776-13.321,158.921-37.51c4.754-2.547,9.28-5.176,13.59-7.867
		c3.871-0.965,7.954,0.126,10.775,2.956c0.977,0.979,2.258,1.469,3.54,1.469c1.277,0,2.556-0.486,3.531-1.46
		c1.955-1.95,1.959-5.116,0.009-7.071c-1.691-1.695-3.624-3.06-5.705-4.08c17.723-12.933,30.353-26.958,36.74-40.767
		C457.681,203.653,461.3,211.884,461.3,220.208z M229.137,118.802c178.661,0,216.163,30.946,216.163,56.906
		c0,21.443-23.744,47.485-61.965,67.964c-43.718,23.424-98.48,36.324-154.198,36.324c-56.032,0-110.074-11.94-152.17-33.622
		c-37.441-19.283-59.793-43.653-59.793-65.188C17.174,142.123,96.413,118.802,229.137,118.802z M10,246.898
		c0-7.052,2.601-14.042,7.754-20.881c3.449,22.827,27.193,43.737,67.768,59.383c42.491,16.385,98.88,25.408,158.778,25.408
		c77.444,0,148.55-15.439,189.785-40.298c-11.573,13.582-32.878,26.008-61.97,35.895C332.09,320.007,280.554,327.498,227,327.498
		c-78.578,0-150.33-15.921-189.245-41.766c-1.314-0.872-6.999-5.023-8.496-6.251C19.652,271.6,10,260.337,10,246.898z
		 M399.265,337.355c-35.316,10.049-85.76,15.144-149.926,15.144c-51.944,0-102.297-7.096-141.784-19.98
		c-23.213-7.575-41.786-16.801-54.679-26.975C95.323,325.575,158.789,337.498,227,337.498c54.62,0,107.299-7.681,148.333-21.626
		c36.268-12.326,61.52-28.949,72.465-47.448c4.707,7.866,7.172,15.689,7.172,22.954C454.97,311.369,436.228,326.838,399.265,337.355
		z"/>
</g>
<g>
</g>
<g>
</g>
<g>
</g>
<g>
</g>
<g>
</g>
<g>
</g>
<g>
</g>
<g>
</g>
<g>
</g>
<g>
</g>
<g>
</g>
<g>
</g>
<g>
</g>
<g>
</g>
<g>
</g>
</svg>
